<?xml version="1.0" encoding="utf-8"?>
<!-- Generator: Adobe Illustrator 24.0.1, SVG Export Plug-In . SVG Version: 6.00 Build 0)  -->
<svg width="642.26875px" height="206.8px" xmlns="http://www.w3.org/2000/svg" viewBox="89.43281250000001 23.300000000000004 321.134375 103.39999999999999" style="background: rgba(0, 0, 0, 0);" preserveAspectRatio="xMidYMid"><defs><filter id="editing-extrusion" x="-100%" y="-100%" width="300%" height="300%"><feFlood result="color1" flood-color="#444"></feFlood><feConvolveMatrix order="4,4" divisor="1" kernelMatrix="1 0 0 0 0 1 0 0 0 0 1 0 0 0 0 1" in="SourceAlpha" result="extrude"></feConvolveMatrix><feComposite in="color1" in2="extrude" result="comp-extrude" operator="in"></feComposite><feOffset dx="2" dy="2" in="comp-extrude" result="offset-extrude"></feOffset><feMerge><feMergeNode in="offset-extrude"></feMergeNode><feMergeNode in="SourceGraphic"></feMergeNode></feMerge></filter></defs><g filter="url(#editing-extrusion)"><g transform="translate(139.09248381853104, 99.64500045776367)"><path d="M26.05-39.28L26.05-39.28L26.05-39.28Q27.14-39.28 27.79-38.73L27.79-38.73L27.79-38.73Q28.43-38.19 28.61-36.91L28.61-36.91L28.61-36.91Q28.79-35.62 28.43-33.58L28.43-33.58L28.43-33.58Q28.06-31.54 27.08-28.55L27.08-28.55L27.08-28.55Q25.86-24.83 24.89-21.81L24.89-21.81L24.89-21.81Q23.91-18.79 23.42-15.74L23.42-15.74L23.42-15.74Q23.06-13.12 23.79-11.77L23.79-11.77L23.79-11.77Q24.52-10.43 26.90-10.43L26.90-10.43L26.90-10.43Q32.21-10.43 37.94-17.45L37.94-17.45L37.94-17.45Q43.68-24.46 50.57-38.31L50.57-38.31L50.57-38.31Q51.73-39.28 52.64-39.28L52.64-39.28L52.64-39.28Q53.31-39.28 53.13-38.43L53.13-38.43L53.13-38.43Q46.85-25.07 41.54-16.16L41.54-16.16L41.54-16.16Q36.23-7.26 31.29-1.92L31.29-1.92L31.29-1.92Q26.35 3.42 21.47 5.61L21.47 5.61L21.47 5.61Q16.59 7.81 11.16 7.81L11.16 7.81L11.16 7.81Q8.60 7.81 6.59 6.95L6.59 6.95L6.59 6.95Q4.58 6.10 3.20 4.64L3.20 4.64L3.20 4.64Q1.83 3.17 1.13 1.25L1.13 1.25L1.13 1.25Q0.43-0.67 0.43-2.81L0.43-2.81L0.43-2.81Q0.43-5.12 1.25-7.32L1.25-7.32L1.25-7.32Q2.07-9.52 3.69-11.25L3.69-11.25L3.69-11.25Q5.31-12.99 7.72-14.21L7.72-14.21L7.72-14.21Q10.13-15.43 13.36-15.80L13.36-15.80L13.36-15.80Q13.66-15.74 13.63-15.49L13.63-15.49L13.63-15.49Q13.60-15.25 13.30-14.95L13.30-14.95L13.30-14.95Q10.49-14.58 8.51-13.63L8.51-13.63L8.51-13.63Q6.53-12.69 5.25-11.29L5.25-11.29L5.25-11.29Q3.96-9.88 3.39-8.11L3.39-8.11L3.39-8.11Q2.81-6.34 2.81-4.33L2.81-4.33L2.81-4.33Q2.81 0.30 5.49 3.02L5.49 3.02L5.49 3.02Q8.17 5.73 13.48 5.73L13.48 5.73L13.48 5.73Q17.38 5.73 20.92 4.39L20.92 4.39L20.92 4.39Q24.46 3.05 27.88-0.12L27.88-0.12L27.88-0.12Q31.29-3.29 34.74-8.51L34.74-8.51L34.74-8.51Q38.19-13.72 41.97-21.41L41.97-21.41L41.97-21.41Q40.26-18.61 38.16-16.20L38.16-16.20L38.16-16.20Q36.05-13.79 33.85-11.99L33.85-11.99L33.85-11.99Q31.66-10.19 29.49-9.18L29.49-9.18L29.49-9.18Q27.33-8.17 25.50-8.17L25.50-8.17L25.50-8.17Q22.75-8.17 21.62-9.76L21.62-9.76L21.62-9.76Q20.50-11.35 20.92-14.15L20.92-14.15L20.92-14.15Q21.41-17.51 22.42-20.86L22.42-20.86L22.42-20.86Q23.42-24.22 24.40-27.33L24.40-27.33L24.40-27.33Q25.38-30.38 25.80-32.33L25.80-32.33L25.80-32.33Q26.23-34.28 26.17-35.44L26.17-35.44L26.17-35.44Q26.11-36.60 25.68-37.03L25.68-37.03L25.68-37.03Q25.25-37.45 24.46-37.45L24.46-37.45L24.46-37.45Q23.73-37.45 22.94-37.09L22.94-37.09L22.94-37.09Q22.14-36.72 21.41-36.17L21.41-36.17L21.41-36.17Q20.68-35.62 20.04-34.95L20.04-34.95L20.04-34.95Q19.40-34.28 19.03-33.61L19.03-33.61L19.03-33.61Q18.79-33.37 18.57-33.58L18.57-33.58L18.57-33.58Q18.36-33.79 18.42-34.10L18.42-34.10L18.42-34.10Q18.85-34.77 19.64-35.69L19.64-35.69L19.64-35.69Q20.43-36.60 21.50-37.39L21.50-37.39L21.50-37.39Q22.57-38.19 23.73-38.73L23.73-38.73L23.73-38.73Q24.89-39.28 26.05-39.28ZM44.35 0L44.35 0L44.35 0Q43.55 0 42.94-0.76L42.94-0.76L42.94-0.76Q42.33-1.52 42.33-2.75L42.33-2.75L42.33-2.75Q42.33-3.72 42.61-5.03L42.61-5.03L42.61-5.03Q42.88-6.34 43.34-7.81L43.34-7.81L43.34-7.81Q43.80-9.27 44.47-10.74L44.47-10.74L44.47-10.74Q45.14-12.20 45.99-13.48L45.99-13.48L45.99-13.48Q45.32-12.99 44.59-12.41L44.59-12.41L44.59-12.41Q43.86-11.83 43.37-11.35L43.37-11.35L43.37-11.35Q43.19-11.22 43.07-11.44L43.07-11.44L43.07-11.44Q42.94-11.65 43.00-11.83L43.00-11.83L43.00-11.83Q43.43-12.26 44.10-12.81L44.10-12.81L44.10-12.81Q44.77-13.36 45.54-13.91L45.54-13.91L45.54-13.91Q46.30-14.46 47.12-14.98L47.12-14.98L47.12-14.98Q47.95-15.49 48.68-15.86L48.68-15.86L48.68-15.86Q48.92-15.92 49.07-15.74L49.07-15.74L49.07-15.74Q49.23-15.55 49.17-15.31L49.17-15.31L49.17-15.31Q47.21-12.81 46.02-9.79L46.02-9.79L46.02-9.79Q44.84-6.77 44.84-4.03L44.84-4.03L44.84-4.03Q44.84-2.26 45.87-2.26L45.87-2.26L45.87-2.26Q46.66-2.26 47.85-3.32L47.85-3.32L47.85-3.32Q49.04-4.39 50.32-6.13L50.32-6.13L50.32-6.13Q51.61-7.87 52.92-10.06L52.92-10.06L52.92-10.06Q54.23-12.26 55.33-14.52L55.33-14.52L55.33-14.52Q55.51-14.95 56.03-15.28L56.03-15.28L56.03-15.28Q56.55-15.62 57.16-15.62L57.16-15.62L57.16-15.62Q57.95-15.62 57.71-15.13L57.71-15.13L57.71-15.13Q56.85-13.54 56.18-12.17L56.18-12.17L56.18-12.17Q55.51-10.80 55.08-9.46L55.08-9.46L55.08-9.46Q54.66-8.11 54.44-6.71L54.44-6.71L54.44-6.71Q54.23-5.31 54.23-3.66L54.23-3.66L54.23-3.66Q54.23-1.71 55.33-1.71L55.33-1.71L55.33-1.71Q55.81-1.71 56.42-2.23L56.42-2.23L56.42-2.23Q57.03-2.75 57.64-3.60L57.64-3.60L57.64-3.60Q57.83-3.72 58.01-3.60L58.01-3.60L58.01-3.60Q58.19-3.48 58.07-3.17L58.07-3.17L58.07-3.17Q57.22-1.89 56.09-0.95L56.09-0.95L56.09-0.95Q54.96 0 53.92 0L53.92 0L53.92 0Q53.13 0 52.58-0.79L52.58-0.79L52.58-0.79Q52.03-1.59 52.03-2.93L52.03-2.93L52.03-2.93Q52.03-4.39 52.31-6.07L52.31-6.07L52.31-6.07Q52.58-7.75 53.19-9.46L53.19-9.46L53.19-9.46Q52.03-7.20 50.75-5.46L50.75-5.46L50.75-5.46Q49.47-3.72 48.28-2.50L48.28-2.50L48.28-2.50Q47.09-1.28 46.05-0.64L46.05-0.64L46.05-0.64Q45.02 0 44.35 0ZM73.87-3.90L73.87-3.90L73.87-3.90Q74.05-4.03 74.24-3.90L74.24-3.90L74.24-3.90Q74.42-3.78 74.36-3.54L74.36-3.54L74.36-3.54Q73.99-2.87 73.44-2.23L73.44-2.23L73.44-2.23Q72.89-1.59 72.28-1.10L72.28-1.10L72.28-1.10Q71.67-0.61 71.06-0.27L71.06-0.27L71.06-0.27Q70.45 0.06 69.97 0.06L69.97 0.06L69.97 0.06Q68.87 0.06 67.65-1.46L67.65-1.46L67.65-1.46Q66.43-2.99 65.57-5.61L65.57-5.61L65.57-5.61Q63.99-2.87 62.37-1.40L62.37-1.40L62.37-1.40Q60.76 0.06 59.17 0.06L59.17 0.06L59.17 0.06Q58.19 0.06 58.19-1.22L58.19-1.22L58.19-1.22Q58.19-1.95 58.44-2.87L58.44-2.87L58.44-2.87Q58.68-3.78 59.23-4.82L59.23-4.82L59.23-4.82Q59.35-4.94 59.51-4.82L59.51-4.82L59.51-4.82Q59.66-4.70 59.66-4.45L59.66-4.45L59.66-4.45Q59.17-3.35 59.47-2.65L59.47-2.65L59.47-2.65Q59.78-1.95 60.45-1.95L60.45-1.95L60.45-1.95Q61.49-1.95 62.68-3.02L62.68-3.02L62.68-3.02Q63.87-4.09 65.27-6.59L65.27-6.59L65.27-6.59Q64.84-8.11 64.72-9.46L64.72-9.46L64.72-9.46Q64.60-10.80 64.51-11.74L64.51-11.74L64.51-11.74Q64.42-12.69 64.32-13.24L64.32-13.24L64.32-13.24Q64.23-13.79 63.93-13.79L63.93-13.79L63.93-13.79Q63.50-13.79 63.01-13.08L63.01-13.08L63.01-13.08Q62.52-12.38 62.22-11.59L62.22-11.59L62.22-11.59Q62.10-11.47 61.88-11.53L61.88-11.53L61.88-11.53Q61.67-11.59 61.73-11.77L61.73-11.77L61.73-11.77Q61.85-12.32 62.25-12.96L62.25-12.96L62.25-12.96Q62.65-13.60 63.17-14.18L63.17-14.18L63.17-14.18Q63.68-14.76 64.26-15.16L64.26-15.16L64.26-15.16Q64.84-15.55 65.33-15.55L65.33-15.55L65.33-15.55Q65.76-15.55 65.97-15.01L65.97-15.01L65.97-15.01Q66.19-14.46 66.28-13.57L66.28-13.57L66.28-13.57Q66.37-12.69 66.43-11.56L66.43-11.56L66.43-11.56Q66.49-10.43 66.67-9.21L66.67-9.21L66.67-9.21Q68.14-11.96 70.00-13.76L70.00-13.76L70.00-13.76Q71.86-15.55 73.57-15.55L73.57-15.55L73.57-15.55Q74.42-15.55 74.88-15.10L74.88-15.10L74.88-15.10Q75.33-14.64 75.33-13.97L75.33-13.97L75.33-13.97Q75.33-13.42 75.00-12.60L75.00-12.60L75.00-12.60Q74.66-11.77 74.30-11.10L74.30-11.10L74.30-11.10Q74.11-10.98 73.96-11.07L73.96-11.07L73.96-11.07Q73.81-11.16 73.81-11.35L73.81-11.35L73.81-11.35Q74.42-12.38 74.18-13.12L74.18-13.12L74.18-13.12Q73.93-13.85 72.96-13.85L72.96-13.85L72.96-13.85Q71.37-13.85 69.94-12.44L69.94-12.44L69.94-12.44Q68.50-11.04 66.92-8.11L66.92-8.11L66.92-8.11Q67.65-5.18 68.78-3.42L68.78-3.42L68.78-3.42Q69.91-1.65 71.06-1.65L71.06-1.65L71.06-1.65Q71.86-1.65 72.56-2.32L72.56-2.32L72.56-2.32Q73.26-2.99 73.87-3.90ZM78.63 0L78.63 0L78.63 0Q77.84 0 77.23-0.76L77.23-0.76L77.23-0.76Q76.62-1.52 76.62-2.75L76.62-2.75L76.62-2.75Q76.62-3.72 76.89-5.03L76.89-5.03L76.89-5.03Q77.16-6.34 77.62-7.81L77.62-7.81L77.62-7.81Q78.08-9.27 78.75-10.74L78.75-10.74L78.75-10.74Q79.42-12.20 80.28-13.48L80.28-13.48L80.28-13.48Q79.60-12.99 78.87-12.41L78.87-12.41L78.87-12.41Q78.14-11.83 77.65-11.35L77.65-11.35L77.65-11.35Q77.47-11.22 77.35-11.44L77.35-11.44L77.35-11.44Q77.23-11.65 77.29-11.83L77.29-11.83L77.29-11.83Q77.71-12.26 78.38-12.81L78.38-12.81L78.38-12.81Q79.06-13.36 79.82-13.91L79.82-13.91L79.82-13.91Q80.58-14.46 81.40-14.98L81.40-14.98L81.40-14.98Q82.23-15.49 82.96-15.86L82.96-15.86L82.96-15.86Q83.20-15.92 83.36-15.74L83.36-15.74L83.36-15.74Q83.51-15.55 83.45-15.31L83.45-15.31L83.45-15.31Q81.50-12.81 80.31-9.79L80.31-9.79L80.31-9.79Q79.12-6.77 79.12-4.03L79.12-4.03L79.12-4.03Q79.12-2.26 80.15-2.26L80.15-2.26L80.15-2.26Q80.95-2.26 82.14-3.32L82.14-3.32L82.14-3.32Q83.33-4.39 84.61-6.13L84.61-6.13L84.61-6.13Q85.89-7.87 87.20-10.06L87.20-10.06L87.20-10.06Q88.51-12.26 89.61-14.52L89.61-14.52L89.61-14.52Q89.79-14.95 90.31-15.28L90.31-15.28L90.31-15.28Q90.83-15.62 91.44-15.62L91.44-15.62L91.44-15.62Q92.23-15.62 91.99-15.13L91.99-15.13L91.99-15.13Q91.13-13.54 90.46-12.17L90.46-12.17L90.46-12.17Q89.79-10.80 89.36-9.46L89.36-9.46L89.36-9.46Q88.94-8.11 88.72-6.71L88.72-6.71L88.72-6.71Q88.51-5.31 88.51-3.66L88.51-3.66L88.51-3.66Q88.51-1.71 89.61-1.71L89.61-1.71L89.61-1.71Q90.10-1.71 90.71-2.23L90.71-2.23L90.71-2.23Q91.32-2.75 91.93-3.60L91.93-3.60L91.93-3.60Q92.11-3.72 92.29-3.60L92.29-3.60L92.29-3.60Q92.48-3.48 92.35-3.17L92.35-3.17L92.35-3.17Q91.50-1.89 90.37-0.95L90.37-0.95L90.37-0.95Q89.24 0 88.21 0L88.21 0L88.21 0Q87.41 0 86.86-0.79L86.86-0.79L86.86-0.79Q86.31-1.59 86.31-2.93L86.31-2.93L86.31-2.93Q86.31-4.39 86.59-6.07L86.59-6.07L86.59-6.07Q86.86-7.75 87.47-9.46L87.47-9.46L87.47-9.46Q86.31-7.20 85.03-5.46L85.03-5.46L85.03-5.46Q83.75-3.72 82.56-2.50L82.56-2.50L82.56-2.50Q81.37-1.28 80.34-0.64L80.34-0.64L80.34-0.64Q79.30 0 78.63 0ZM109.37-3.84L109.37-3.84L109.37-3.84Q109.49-3.96 109.68-3.84L109.68-3.84L109.68-3.84Q109.86-3.72 109.80-3.48L109.80-3.48L109.80-3.48Q108.52-1.71 107.27-0.85L107.27-0.85L107.27-0.85Q106.02 0 105.16 0L105.16 0L105.16 0Q104.61 0 104.28-0.55L104.28-0.55L104.28-0.55Q103.94-1.10 103.85-2.04L103.85-2.04L103.85-2.04Q103.76-2.99 103.91-4.18L103.91-4.18L103.91-4.18Q104.07-5.37 104.43-6.65L104.43-6.65L104.43-6.65Q102.78-4.09 100.95-2.23L100.95-2.23L100.95-2.23Q99.12-0.37 97.42 0L97.42 0L97.42 0Q96.32 0 95.56-1.07L95.56-1.07L95.56-1.07Q94.79-2.13 94.79-4.39L94.79-4.39L94.79-4.39Q94.79-6.41 95.62-8.39L95.62-8.39L95.62-8.39Q96.44-10.37 97.84-11.99L97.84-11.99L97.84-11.99Q99.25-13.60 101.08-14.58L101.08-14.58L101.08-14.58Q102.91-15.55 104.92-15.55L104.92-15.55L104.92-15.55Q106.02-15.55 106.81-15.31L106.81-15.31L106.81-15.31Q107.60-15.07 108.27-14.58L108.27-14.58L108.27-14.58Q108.64-14.88 109.28-15.16L109.28-15.16L109.28-15.16Q109.92-15.43 110.47-15.43L110.47-15.43L110.47-15.43Q110.78-15.43 110.65-15.13L110.65-15.13L110.65-15.13Q109.25-13.42 108.24-11.35L108.24-11.35L108.24-11.35Q107.24-9.27 106.69-7.32L106.69-7.32L106.69-7.32Q106.14-5.37 105.99-3.87L105.99-3.87L105.99-3.87Q105.83-2.38 106.20-1.83L106.20-1.83L106.20-1.83Q106.51-1.40 107.30-1.80L107.30-1.80L107.30-1.80Q108.09-2.20 109.37-3.84ZM98.76-2.07L98.76-2.07L98.76-2.07Q99.43-2.07 100.50-3.02L100.50-3.02L100.50-3.02Q101.56-3.96 102.72-5.49L102.72-5.49L102.72-5.49Q103.88-7.01 105.01-8.94L105.01-8.94L105.01-8.94Q106.14-10.86 106.99-12.81L106.99-12.81L106.99-12.81Q106.75-13.60 105.87-14.09L105.87-14.09L105.87-14.09Q104.98-14.58 103.82-14.58L103.82-14.58L103.82-14.58Q102.48-14.58 101.29-13.88L101.29-13.88L101.29-13.88Q100.10-13.18 99.19-11.93L99.19-11.93L99.19-11.93Q98.27-10.67 97.72-8.97L97.72-8.97L97.72-8.97Q97.17-7.26 97.17-5.18L97.17-5.18L97.17-5.18Q97.17-3.84 97.63-2.96L97.63-2.96L97.63-2.96Q98.09-2.07 98.76-2.07ZM128.04-3.90L128.04-3.90L128.04-3.90Q128.22-4.03 128.40-3.90L128.40-3.90L128.40-3.90Q128.59-3.78 128.53-3.54L128.53-3.54L128.53-3.54Q127.49-2.13 126.24-1.07L126.24-1.07L126.24-1.07Q124.99 0 123.89 0L123.89 0L123.89 0Q122.00 0 122.00-2.44L122.00-2.44L122.00-2.44Q122.00-4.51 122.73-7.05L122.73-7.05L122.73-7.05Q123.46-9.58 124.74-12.14L124.74-12.14L124.74-12.14Q124.99-12.57 124.99-12.99L124.99-12.99L124.99-12.99Q124.99-13.66 124.38-13.66L124.38-13.66L124.38-13.66Q122.12-13.66 119.41-10.55L119.41-10.55L119.41-10.55Q116.69-7.44 114.37-0.79L114.37-0.79L114.37-0.79Q114.25-0.43 113.70-0.21L113.70-0.21L113.70-0.21Q113.15 0 112.67 0L112.67 0L112.67 0Q112.00 0 112.18-0.55L112.18-0.55L112.18-0.55Q113.22-3.17 114.34-6.47L114.34-6.47L114.34-6.47Q115.47-9.76 116.33-12.99L116.33-12.99L116.33-12.99Q116.57-14.15 115.90-14.15L115.90-14.15L115.90-14.15Q115.29-14.15 114.68-13.54L114.68-13.54L114.68-13.54Q114.07-12.93 113.40-11.96L113.40-11.96L113.40-11.96Q113.28-11.83 113.12-12.02L113.12-12.02L113.12-12.02Q112.97-12.20 113.03-12.38L113.03-12.38L113.03-12.38Q113.70-13.42 114.86-14.52L114.86-14.52L114.86-14.52Q116.02-15.62 117.36-15.62L117.36-15.62L117.36-15.62Q118.89-15.62 118.40-13.54L118.40-13.54L118.40-13.54Q118.16-12.20 117.73-10.71L117.73-10.71L117.73-10.71Q117.30-9.21 116.81-7.75L116.81-7.75L116.81-7.75Q117.67-9.39 118.83-10.86L118.83-10.86L118.83-10.86Q119.99-12.32 121.24-13.36L121.24-13.36L121.24-13.36Q122.49-14.40 123.74-15.01L123.74-15.01L123.74-15.01Q124.99-15.62 126.09-15.62L126.09-15.62L126.09-15.62Q126.82-15.62 127.22-15.25L127.22-15.25L127.22-15.25Q127.61-14.88 127.61-14.40L127.61-14.40L127.61-14.40Q127.61-13.60 127.25-12.81L127.25-12.81L127.25-12.81Q125.96-10.49 125.08-7.96L125.08-7.96L125.08-7.96Q124.20-5.43 124.20-3.29L124.20-3.29L124.20-3.29Q124.20-1.77 125.17-1.77L125.17-1.77L125.17-1.77Q126.45-1.77 128.04-3.90ZM169.40-22.20L169.40-22.20L169.40-22.20Q172.87-20.62 174.46-17.81L174.46-17.81L174.46-17.81Q176.05-15.01 176.05-12.02L176.05-12.02L176.05-12.02Q176.05-6.47 172.11-3.23L172.11-3.23L172.11-3.23Q168.18 0 160.37 0L160.37 0L160.37 0Q154.09 0 148.99-2.07L148.99-2.07L148.99-2.07Q143.90-4.15 139.63-7.75L139.63-7.75L139.63-7.75Q139.45-7.99 139.75-8.27L139.75-8.27L139.75-8.27Q140.06-8.54 140.51-8.75L140.51-8.75L140.51-8.75Q140.97-8.97 141.52-9.06L141.52-9.06L141.52-9.06Q142.07-9.15 142.44-8.97L142.44-8.97L142.44-8.97Q143.59-7.75 144.78-7.41L144.78-7.41L144.78-7.41Q145.97-7.08 147.62-7.38L147.62-7.38L147.62-7.38Q149.21-7.69 150.46-8.60L150.46-8.60L150.46-8.60Q151.71-9.52 152.84-11.41L152.84-11.41L152.84-11.41Q153.96-13.30 155.09-16.35L155.09-16.35L155.09-16.35Q156.22-19.40 157.50-24.03L157.50-24.03L157.50-24.03Q158.78-28.55 160.58-31.96L160.58-31.96L160.58-31.96Q162.38-35.38 164.94-37.70L164.94-37.70L164.94-37.70Q164.40-37.82 163.85-37.82L163.85-37.82L163.85-37.82Q163.30-37.82 162.63-37.82L162.63-37.82L162.63-37.82Q160.61-37.82 158.63-37.24L158.63-37.24L158.63-37.24Q156.65-36.66 154.88-35.56L154.88-35.56L154.88-35.56Q153.11-34.46 151.71-32.88L151.71-32.88L151.71-32.88Q150.30-31.29 149.39-29.28L149.39-29.28L149.39-29.28Q149.27-29.16 149.11-29.25L149.11-29.25L149.11-29.25Q148.96-29.34 149.02-29.59L149.02-29.59L149.02-29.59Q149.75-31.48 151.25-33.24L151.25-33.24L151.25-33.24Q152.74-35.01 154.82-36.36L154.82-36.36L154.82-36.36Q156.89-37.70 159.48-38.49L159.48-38.49L159.48-38.49Q162.08-39.28 165.07-39.28L165.07-39.28L165.07-39.28Q165.55-39.28 166.01-39.28L166.01-39.28L166.01-39.28Q166.47-39.28 166.96-39.22L166.96-39.22L166.96-39.22Q169.15-40.75 172.20-41.48L172.20-41.48L172.20-41.48Q172.51-41.48 172.51-41.30L172.51-41.30L172.51-41.30Q172.51-41.11 172.20-40.99L172.20-40.99L172.20-40.99Q171.17-40.69 170.13-40.23L170.13-40.23L170.13-40.23Q169.09-39.77 168.18-39.10L168.18-39.10L168.18-39.10Q170.62-38.73 172.42-37.91L172.42-37.91L172.42-37.91Q174.22-37.09 175.38-35.90L175.38-35.90L175.38-35.90Q176.53-34.71 177.08-33.34L177.08-33.34L177.08-33.34Q177.63-31.96 177.63-30.50L177.63-30.50L177.63-30.50Q177.63-28.67 176.93-27.14L176.93-27.14L176.93-27.14Q176.23-25.62 175.07-24.52L175.07-24.52L175.07-24.52Q173.91-23.42 172.42-22.81L172.42-22.81L172.42-22.81Q170.92-22.20 169.40-22.20ZM161.77-0.92L161.77-0.92L161.77-0.92Q164.52-0.92 166.68-1.68L166.68-1.68L166.68-1.68Q168.85-2.44 170.34-3.75L170.34-3.75L170.34-3.75Q171.84-5.06 172.60-6.83L172.60-6.83L172.60-6.83Q173.36-8.60 173.36-10.67L173.36-10.67L173.36-10.67Q173.36-19.52 164.15-21.96L164.15-21.96L164.15-21.96Q163.97-22.14 164.21-22.45L164.21-22.45L164.21-22.45Q164.46-22.75 164.88-23.00L164.88-23.00L164.88-23.00Q165.31-23.24 165.86-23.36L165.86-23.36L165.86-23.36Q166.41-23.48 166.77-23.42L166.77-23.42L166.77-23.42Q167.32-23.18 167.78-23.09L167.78-23.09L167.78-23.09Q168.24-23.00 168.97-23.00L168.97-23.00L168.97-23.00Q170.07-23.00 171.14-23.45L171.14-23.45L171.14-23.45Q172.20-23.91 173.03-24.77L173.03-24.77L173.03-24.77Q173.85-25.62 174.37-26.75L174.37-26.75L174.37-26.75Q174.89-27.88 174.89-29.28L174.89-29.28L174.89-29.28Q174.89-32.21 172.78-34.50L172.78-34.50L172.78-34.50Q170.68-36.78 166.29-37.58L166.29-37.58L166.29-37.58Q164.27-35.50 162.69-32.45L162.69-32.45L162.69-32.45Q161.10-29.40 160.00-25.13L160.00-25.13L160.00-25.13Q158.42-19.34 156.74-15.71L156.74-15.71L156.74-15.71Q155.06-12.08 153.29-10.00L153.29-10.00L153.29-10.00Q151.52-7.93 149.63-7.14L149.63-7.14L149.63-7.14Q147.74-6.34 145.79-6.28L145.79-6.28L145.79-6.28Q148.90-3.96 153.05-2.44L153.05-2.44L153.05-2.44Q157.20-0.92 161.77-0.92ZM179.83-11.35L179.83-11.35L179.83-11.35Q179.65-11.22 179.49-11.44L179.49-11.44L179.49-11.44Q179.34-11.65 179.46-11.83L179.46-11.83L179.46-11.83Q180.32-12.69 181.78-13.79L181.78-13.79L181.78-13.79Q183.24-14.88 184.71-15.62L184.71-15.62L184.71-15.62Q185.20-15.62 185.20-15.07L185.20-15.07L185.20-15.07Q184.40-13.66 183.64-12.02L183.64-12.02L183.64-12.02Q182.88-10.37 182.30-8.75L182.30-8.75L182.30-8.75Q181.72-7.14 181.35-5.64L181.35-5.64L181.35-5.64Q180.99-4.15 180.99-3.17L180.99-3.17L180.99-3.17Q180.99-1.89 181.84-1.89L181.84-1.89L181.84-1.89Q182.51-1.89 183.15-2.47L183.15-2.47L183.15-2.47Q183.79-3.05 184.65-4.03L184.65-4.03L184.65-4.03Q184.77-4.15 184.95-3.96L184.95-3.96L184.95-3.96Q185.13-3.78 185.01-3.54L185.01-3.54L185.01-3.54Q183.91-2.20 182.66-1.10L182.66-1.10L182.66-1.10Q181.41 0 180.32 0L180.32 0L180.32 0Q178.73 0 178.73-2.01L178.73-2.01L178.73-2.01Q178.73-3.17 179.13-4.79L179.13-4.79L179.13-4.79Q179.52-6.41 180.13-8.05L180.13-8.05L180.13-8.05Q180.74-9.70 181.51-11.22L181.51-11.22L181.51-11.22Q182.27-12.75 183-13.85L183-13.85L183-13.85Q182.33-13.36 181.32-12.60L181.32-12.60L181.32-12.60Q180.32-11.83 179.83-11.35ZM185.32-18.24L185.32-18.24L185.32-18.24Q185.13-18.06 184.98-18.21L184.98-18.21L184.98-18.21Q184.83-18.36 184.77-18.64L184.77-18.64L184.77-18.64Q184.71-18.91 184.71-19.28L184.71-19.28L184.71-19.28Q184.71-19.64 184.89-19.89L184.89-19.89L184.89-19.89Q186.48-22.08 189.34-24.58L189.34-24.58L189.34-24.58Q189.53-24.64 189.71-24.49L189.71-24.49L189.71-24.49Q189.89-24.34 189.77-24.22L189.77-24.22L189.77-24.22Q188.49-23.06 187.33-21.44L187.33-21.44L187.33-21.44Q186.17-19.82 185.32-18.24ZM202.22-3.84L202.22-3.84L202.22-3.84Q202.34-3.96 202.52-3.84L202.52-3.84L202.52-3.84Q202.70-3.72 202.64-3.48L202.64-3.48L202.64-3.48Q201.36-1.71 200.11-0.85L200.11-0.85L200.11-0.85Q198.86 0 198.01 0L198.01 0L198.01 0Q197.46 0 197.12-0.55L197.12-0.55L197.12-0.55Q196.79-1.10 196.69-2.04L196.69-2.04L196.69-2.04Q196.60-2.99 196.76-4.18L196.76-4.18L196.76-4.18Q196.91-5.37 197.27-6.65L197.27-6.65L197.27-6.65Q195.63-4.09 193.80-2.23L193.80-2.23L193.80-2.23Q191.97-0.37 190.26 0L190.26 0L190.26 0Q189.16 0 188.40-1.07L188.40-1.07L188.40-1.07Q187.64-2.13 187.64-4.39L187.64-4.39L187.64-4.39Q187.64-6.41 188.46-8.39L188.46-8.39L188.46-8.39Q189.28-10.37 190.69-11.99L190.69-11.99L190.69-11.99Q192.09-13.60 193.92-14.58L193.92-14.58L193.92-14.58Q195.75-15.55 197.76-15.55L197.76-15.55L197.76-15.55Q198.86-15.55 199.65-15.31L199.65-15.31L199.65-15.31Q200.45-15.07 201.12-14.58L201.12-14.58L201.12-14.58Q201.48-14.88 202.12-15.16L202.12-15.16L202.12-15.16Q202.76-15.43 203.31-15.43L203.31-15.43L203.31-15.43Q203.62-15.43 203.50-15.13L203.50-15.13L203.50-15.13Q202.09-13.42 201.09-11.35L201.09-11.35L201.09-11.35Q200.08-9.27 199.53-7.32L199.53-7.32L199.53-7.32Q198.98-5.37 198.83-3.87L198.83-3.87L198.83-3.87Q198.68-2.38 199.04-1.83L199.04-1.83L199.04-1.83Q199.35-1.40 200.14-1.80L200.14-1.80L200.14-1.80Q200.93-2.20 202.22-3.84ZM191.60-2.07L191.60-2.07L191.60-2.07Q192.27-2.07 193.34-3.02L193.34-3.02L193.34-3.02Q194.41-3.96 195.57-5.49L195.57-5.49L195.57-5.49Q196.72-7.01 197.85-8.94L197.85-8.94L197.85-8.94Q198.98-10.86 199.84-12.81L199.84-12.81L199.84-12.81Q199.59-13.60 198.71-14.09L198.71-14.09L198.71-14.09Q197.82-14.58 196.66-14.58L196.66-14.58L196.66-14.58Q195.32-14.58 194.13-13.88L194.13-13.88L194.13-13.88Q192.94-13.18 192.03-11.93L192.03-11.93L192.03-11.93Q191.11-10.67 190.56-8.97L190.56-8.97L190.56-8.97Q190.02-7.26 190.02-5.18L190.02-5.18L190.02-5.18Q190.02-3.84 190.47-2.96L190.47-2.96L190.47-2.96Q190.93-2.07 191.60-2.07ZM220.88-3.90L220.88-3.90L220.88-3.90Q221.06-4.03 221.25-3.90L221.25-3.90L221.25-3.90Q221.43-3.78 221.37-3.54L221.37-3.54L221.37-3.54Q220.33-2.13 219.08-1.07L219.08-1.07L219.08-1.07Q217.83 0 216.73 0L216.73 0L216.73 0Q214.84 0 214.84-2.44L214.84-2.44L214.84-2.44Q214.84-4.51 215.57-7.05L215.57-7.05L215.57-7.05Q216.31-9.58 217.59-12.14L217.59-12.14L217.59-12.14Q217.83-12.57 217.83-12.99L217.83-12.99L217.83-12.99Q217.83-13.66 217.22-13.66L217.22-13.66L217.22-13.66Q214.96-13.66 212.25-10.55L212.25-10.55L212.25-10.55Q209.53-7.44 207.22-0.79L207.22-0.79L207.22-0.79Q207.09-0.43 206.55-0.21L206.55-0.21L206.55-0.21Q206.00 0 205.51 0L205.51 0L205.51 0Q204.84 0 205.02-0.55L205.02-0.55L205.02-0.55Q206.06-3.17 207.19-6.47L207.19-6.47L207.19-6.47Q208.31-9.76 209.17-12.99L209.17-12.99L209.17-12.99Q209.41-14.15 208.74-14.15L208.74-14.15L208.74-14.15Q208.13-14.15 207.52-13.54L207.52-13.54L207.52-13.54Q206.91-12.93 206.24-11.96L206.24-11.96L206.24-11.96Q206.12-11.83 205.97-12.02L205.97-12.02L205.97-12.02Q205.81-12.20 205.88-12.38L205.88-12.38L205.88-12.38Q206.55-13.42 207.71-14.52L207.71-14.52L207.71-14.52Q208.86-15.62 210.21-15.62L210.21-15.62L210.21-15.62Q211.73-15.62 211.24-13.54L211.24-13.54L211.24-13.54Q211.00-12.20 210.57-10.71L210.57-10.71L210.57-10.71Q210.15-9.21 209.66-7.75L209.66-7.75L209.66-7.75Q210.51-9.39 211.67-10.86L211.67-10.86L211.67-10.86Q212.83-12.32 214.08-13.36L214.08-13.36L214.08-13.36Q215.33-14.40 216.58-15.01L216.58-15.01L216.58-15.01Q217.83-15.62 218.93-15.62L218.93-15.62L218.93-15.62Q219.66-15.62 220.06-15.25L220.06-15.25L220.06-15.25Q220.45-14.88 220.45-14.40L220.45-14.40L220.45-14.40Q220.45-13.60 220.09-12.81L220.09-12.81L220.09-12.81Q218.81-10.49 217.92-7.96L217.92-7.96L217.92-7.96Q217.04-5.43 217.04-3.29L217.04-3.29L217.04-3.29Q217.04-1.77 218.01-1.77L218.01-1.77L218.01-1.77Q219.30-1.77 220.88-3.90Z" fill="#ccc"></path></g></g><style>text {
  font-size: 64px;
  font-family: Arial Black;
  dominant-baseline: central;
  text-anchor: middle;
}</style></svg>